<svg id="Capa_1" enable-background="new 0 0 512 512" height="512" viewBox="0 0 512 512" width="512" xmlns="http://www.w3.org/2000/svg"><g><path d="m465.25 83.25h-130.25c-4.143 0-7.5 3.357-7.5 7.5s3.357 7.5 7.5 7.5h130.25c17.804 0 31.75 14.275 31.75 32.5v33.25c0 4.143 3.357 7.5 7.5 7.5s7.5-3.357 7.5-7.5v-33.25c0-26.636-20.535-47.5-46.75-47.5z"/><path d="m7.5 263.5c4.143 0 7.5-3.357 7.5-7.5v-125.25c0-17.921 14.691-32.5 32.75-32.5h252.25c4.143 0 7.5-3.357 7.5-7.5s-3.357-7.5-7.5-7.5h-252.25c-26.329 0-47.75 21.309-47.75 47.5v125.25c0 4.143 3.357 7.5 7.5 7.5z"/><path d="m504.5 191.5c-4.143 0-7.5 3.357-7.5 7.5v182.25c0 18.225-13.946 32.5-31.75 32.5h-417.5c-18.059 0-32.75-14.579-32.75-32.5v-90.25c0-4.143-3.357-7.5-7.5-7.5s-7.5 3.357-7.5 7.5v90.25c0 26.191 21.421 47.5 47.75 47.5h417.5c26.215 0 46.75-20.864 46.75-47.5v-182.25c0-4.143-3.357-7.5-7.5-7.5z"/><path d="m179.5 228.657v-31.594c0-16.589-13.496-30.085-30.085-30.085h-66.628c-16.589 0-30.085 13.496-30.085 30.085v31.594c0 16.589 13.496 30.085 30.085 30.085h16.213c4.143 0 7.5-3.357 7.5-7.5s-3.357-7.5-7.5-7.5h-16.213c-8.318 0-15.085-6.767-15.085-15.085v-31.594c0-8.318 6.767-15.085 15.085-15.085h66.628c8.318 0 15.085 6.767 15.085 15.085v31.594c0 8.318-6.767 15.085-15.085 15.085h-15.415c-4.143 0-7.5 3.357-7.5 7.5s3.357 7.5 7.5 7.5h15.415c16.589 0 30.085-13.496 30.085-30.085z"/><path d="m75.202 328.341c-12.406 0-22.5 10.094-22.5 22.5s10.094 22.5 22.5 22.5h45c12.406 0 22.5-10.094 22.5-22.5s-10.094-22.5-22.5-22.5zm52.5 22.5c0 4.136-3.364 7.5-7.5 7.5h-45c-4.136 0-7.5-3.364-7.5-7.5s3.364-7.5 7.5-7.5h45c4.136 0 7.5 3.364 7.5 7.5z"/><path d="m185.202 373.341h45c12.406 0 22.5-10.094 22.5-22.5s-10.094-22.5-22.5-22.5h-45c-12.406 0-22.5 10.094-22.5 22.5s10.094 22.5 22.5 22.5zm0-30h45c4.136 0 7.5 3.364 7.5 7.5s-3.364 7.5-7.5 7.5h-45c-4.136 0-7.5-3.364-7.5-7.5s3.364-7.5 7.5-7.5z"/><path d="m272.702 350.841c0 12.406 10.094 22.5 22.5 22.5h45c12.406 0 22.5-10.094 22.5-22.5s-10.094-22.5-22.5-22.5h-45c-12.406 0-22.5 10.094-22.5 22.5zm75 0c0 4.136-3.364 7.5-7.5 7.5h-45c-4.136 0-7.5-3.364-7.5-7.5s3.364-7.5 7.5-7.5h45c4.136 0 7.5 3.364 7.5 7.5z"/><path d="m382.702 350.841c0 12.406 10.094 22.5 22.5 22.5h45c12.406 0 22.5-10.094 22.5-22.5s-10.094-22.5-22.5-22.5h-45c-12.406 0-22.5 10.094-22.5 22.5zm75 0c0 4.136-3.364 7.5-7.5 7.5h-45c-4.136 0-7.5-3.364-7.5-7.5s3.364-7.5 7.5-7.5h45c4.136 0 7.5 3.364 7.5 7.5z"/><path d="m413.462 132.866c-2.56-3.258-7.276-3.822-10.53-1.263-3.257 2.559-3.822 7.273-1.263 10.53 2.006 2.553 3.936 5.185 5.731 7.818 14.001 20.561 21.1 42.652 21.1 65.66 0 23.422-7.35 45.875-21.844 66.734-1.75 2.518-3.626 5.034-5.574 7.479-2.581 3.239-2.049 7.958 1.19 10.54 3.216 2.568 7.946 2.063 10.54-1.19 2.151-2.7 4.224-5.48 6.161-8.268 16.045-23.092 24.526-49.128 24.526-75.295 0-26.075-7.975-51.007-23.705-74.108-1.987-2.914-4.118-5.82-6.332-8.637z"/><path d="m391.48 155.119c-2.459-3.334-7.154-4.044-10.487-1.585-3.334 2.458-4.043 7.154-1.585 10.487.799 1.084 1.59 2.199 2.349 3.313 10.448 15.337 15.746 31.58 15.746 48.278 0 17.013-5.493 33.538-16.325 49.116-.755 1.086-1.539 2.171-2.33 3.228-2.483 3.314-1.811 8.015 1.505 10.499 3.284 2.468 8.001 1.83 10.499-1.505.896-1.196 1.785-2.428 2.641-3.657 12.614-18.141 19.011-37.548 19.011-57.681 0-19.767-6.174-38.852-18.35-56.725-.865-1.267-1.764-2.534-2.674-3.768z"/><path d="m358.435 256.499c3.392 2.296 8.082 1.428 10.41-2.033 8.521-12.657 12.662-25.366 12.662-38.854 0-13.143-3.941-25.553-12.049-37.938-2.269-3.467-6.918-4.436-10.383-2.168-3.466 2.27-4.437 6.918-2.168 10.383 6.46 9.867 9.6 19.59 9.6 29.723 0 10.406-3.306 20.375-10.105 30.477-2.314 3.436-1.403 8.097 2.033 10.41z"/><path d="m336.695 234.438c3.637 1.81 8.206.328 10.037-3.428 3.386-6.897 3.777-12.092 3.777-15.398 0-3.069-.335-7.885-3.227-14.237-1.717-3.771-6.163-5.434-9.934-3.719-3.771 1.717-5.435 6.164-3.719 9.934 1.665 3.657 1.879 6.209 1.879 8.022 0 1.965-.255 4.739-2.242 8.789-1.824 3.719-.288 8.213 3.429 10.037z"/></g></svg>